<svg xmlns="http://www.w3.org/2000/svg" width="146" height="51" viewBox="0 0 146 51" fill="none">
<g filter="url(#filter0_d_525_2)">
<path d="M4.798 29.762C4.798 29.53 4.798 29.3753 4.798 29.298C4.83667 29.182 4.914 29.066 5.03 28.95C5.18467 28.834 5.39733 28.718 5.668 28.602C13.788 25.6633 20.7673 23.1113 26.606 20.946C27.998 20.4433 28.81 20.1533 29.042 20.076C29.3127 19.96 29.4867 19.902 29.564 19.902C30.2987 19.902 30.666 20.3853 30.666 21.352C30.666 21.816 30.3567 22.1253 29.738 22.28L12.048 28.718C10.424 29.298 9.612 29.704 9.612 29.936C9.612 30.052 10.424 30.4 12.048 30.98L30.028 37.476C30.4533 37.6307 30.666 37.882 30.666 38.23C30.666 38.5393 30.55 38.8487 30.318 39.158C30.1247 39.4673 29.796 39.622 29.332 39.622C29.1773 39.622 21.27 36.78 5.61 31.096C5.22333 30.9413 4.99133 30.7867 4.914 30.632C4.83667 30.4773 4.798 30.1873 4.798 29.762ZM33.6131 41.188C33.6131 40.6853 34.0385 40.4147 34.8891 40.376C36.2811 40.2987 37.2285 39.5833 37.7311 38.23C37.9631 37.534 38.3498 35.6393 38.8911 32.546C38.8911 32.43 39.0458 31.4247 39.3551 29.53C39.6645 27.6353 39.8965 26.0693 40.0511 24.832L42.1391 7.258C42.1778 6.91 42.1971 6.504 42.1971 6.04C42.1971 4.95733 41.9651 4.16467 41.5011 3.662C41.0371 3.12067 40.5345 2.83067 39.9931 2.792C39.4518 2.75333 38.9491 2.676 38.4851 2.56C38.0211 2.40533 37.7891 2.154 37.7891 1.806C37.7891 1.226 38.2338 0.936 39.1231 0.936C39.4711 0.936 40.2638 0.955333 41.5011 0.993999C42.7771 0.993999 44.4978 1.01333 46.6631 1.052C48.8671 1.052 51.2451 1.052 53.7971 1.052C54.6091 1.052 56.9098 1.01333 60.6991 0.936C64.4885 0.858665 66.6538 0.819998 67.1951 0.819998C67.8911 0.819998 68.2391 1.18733 68.2391 1.922C68.2391 2.11533 68.2005 2.56 68.1231 3.256C68.0458 3.91333 68.0071 4.49333 68.0071 4.996C68.0071 5.26666 68.0265 5.75 68.0651 6.446C68.1425 7.142 68.1811 7.70266 68.1811 8.128C68.1811 9.21066 67.9298 9.752 67.4271 9.752C67.0791 9.752 66.8471 9.61666 66.7311 9.346C66.6151 9.07533 66.5571 8.74666 66.5571 8.36C66.5571 7.97333 66.4798 7.49 66.3251 6.91C66.1705 6.33 65.8805 5.808 65.4551 5.344C65.3005 5.15067 65.0298 4.938 64.6431 4.706C64.2565 4.474 63.5798 4.22266 62.6131 3.952C61.6465 3.64266 60.5638 3.488 59.3651 3.488C57.8958 3.488 56.3298 3.46866 54.6671 3.43C53.0045 3.35266 51.5931 3.314 50.4331 3.314C48.7318 3.314 47.6878 3.50733 47.3011 3.894C46.9531 4.28067 46.6245 5.402 46.3151 7.258C45.3485 14.0247 44.8651 17.9493 44.8651 19.032C44.8651 19.4187 44.9811 19.6507 45.2131 19.728C45.4838 19.8053 46.1991 19.844 47.3591 19.844C52.3858 19.844 55.4791 19.7667 56.6391 19.612C57.8378 19.4573 58.6885 19.0707 59.1911 18.452C59.5778 17.988 59.8871 17.4853 60.1191 16.944C60.3511 16.4027 60.5251 16.016 60.6411 15.784C60.7571 15.552 60.9311 15.436 61.1631 15.436C61.6271 15.436 61.8591 15.6487 61.8591 16.074C61.8591 16.422 61.6851 17.3307 61.3371 18.8C61.0278 20.2307 60.8151 21.3327 60.6991 22.106C60.6218 22.5313 60.5831 23.2853 60.5831 24.368C60.5831 25.4507 60.5058 26.3013 60.3511 26.92C60.2351 27.5387 60.0031 27.848 59.6551 27.848C59.2298 27.848 59.0171 27.5387 59.0171 26.92C59.0171 25.064 58.6885 23.904 58.0311 23.44C56.9098 22.628 54.8411 22.222 51.8251 22.222C50.6651 22.222 49.7178 22.222 48.9831 22.222C48.2871 22.222 47.8425 22.222 47.6491 22.222C47.4945 22.1833 47.3591 22.164 47.2431 22.164C47.1271 22.164 47.0111 22.164 46.8951 22.164C45.4258 22.164 44.6718 22.4927 44.6331 23.15C44.5171 24.31 44.2658 26.05 43.8791 28.37C43.5311 30.6513 43.2218 32.6813 42.9511 34.46C42.6805 36.2387 42.5451 37.2633 42.5451 37.534C42.5451 38.462 43.0091 39.0613 43.9371 39.332C44.8651 39.564 46.8371 39.68 49.8531 39.68C53.1398 39.68 55.9238 39.39 58.2051 38.81C60.5251 38.1913 62.0911 37.534 62.9031 36.838C63.7538 36.1033 64.4498 35.446 64.9911 34.866C65.5711 34.2473 65.9771 33.938 66.2091 33.938C66.5958 33.938 66.7891 34.2087 66.7891 34.75C66.7891 35.794 65.9771 37.3407 64.3531 39.39C62.7291 41.4393 61.2985 42.464 60.0611 42.464C57.2771 42.464 53.7971 42.348 49.6211 42.116C45.4838 41.9227 42.9898 41.826 42.1391 41.826C41.0565 41.826 39.9351 41.8647 38.7751 41.942C37.6151 41.9807 36.5711 42 35.6431 42C34.2898 42 33.6131 41.7293 33.6131 41.188ZM69.6366 41.652C69.6366 41.4587 69.7139 41.304 69.8686 41.188C70.0232 41.072 70.1972 40.9947 70.3906 40.956C70.6226 40.8787 70.8932 40.782 71.2026 40.666C71.5506 40.55 71.8406 40.376 72.0726 40.144C72.3819 39.8733 72.6526 39.5833 72.8846 39.274C73.1552 38.9647 73.3872 38.5587 73.5806 38.056C73.7739 37.5147 73.9286 37.0507 74.0446 36.664C74.1606 36.2387 74.2959 35.562 74.4506 34.634C74.6439 33.6673 74.7792 32.8553 74.8566 32.198C74.9726 31.5407 75.1466 30.458 75.3786 28.95C75.6106 27.442 75.8039 26.1467 75.9586 25.064C76.0359 24.5227 76.2292 23.2853 76.5386 21.352C76.8866 19.38 77.1379 17.814 77.2926 16.654C77.4859 15.494 77.6599 14.1407 77.8146 12.594C78.0079 11.0473 78.1046 9.81 78.1046 8.882C78.1046 8.37933 78.0659 7.91533 77.9886 7.49C77.9112 7.06467 77.8339 6.736 77.7566 6.504C77.6792 6.272 77.5052 6.00133 77.2346 5.692C76.9639 5.344 76.7899 5.13133 76.7126 5.054C76.6352 4.938 76.3839 4.706 75.9586 4.358C75.5719 3.97133 75.3399 3.73933 75.2626 3.662C74.7986 3.23666 74.1219 3.00466 73.2326 2.966C72.3432 2.88867 71.5892 2.83067 70.9706 2.792C70.3906 2.71466 70.1006 2.42466 70.1006 1.922C70.1006 1.18733 71.3959 0.819998 73.9866 0.819998C74.2186 0.819998 74.6052 0.858665 75.1466 0.936C75.7266 0.974666 76.1519 0.993999 76.4226 0.993999C76.4999 0.993999 76.7706 0.993999 77.2346 0.993999C77.6986 0.955333 78.0079 0.936 78.1626 0.936C78.3559 0.936 78.5106 0.955333 78.6266 0.993999C78.7812 0.993999 78.9166 1.03267 79.0326 1.11C79.1872 1.14866 79.2839 1.18733 79.3226 1.226C79.3999 1.26467 79.5159 1.38067 79.6706 1.574C79.8252 1.72867 79.9412 1.864 80.0186 1.98C80.0959 2.096 80.2312 2.30866 80.4246 2.618C80.6566 2.88866 80.8499 3.14 81.0046 3.372C90.1686 16.0547 96.9159 25.8567 101.247 32.778C102.02 34.0153 102.523 34.634 102.755 34.634C103.489 34.634 104.417 30.226 105.539 21.41C106.699 12.5553 107.279 7.50933 107.279 6.272C107.279 5.18933 107.027 4.358 106.525 3.778C106.061 3.198 105.519 2.86933 104.901 2.792C104.321 2.676 103.779 2.52133 103.277 2.328C102.813 2.096 102.581 1.748 102.581 1.284C102.581 0.897332 103.064 0.703999 104.031 0.703999C104.185 0.703999 104.804 0.742665 105.887 0.819998C107.008 0.897332 107.859 0.936 108.439 0.936C109.367 0.936 110.198 0.897332 110.933 0.819998C111.706 0.742665 112.228 0.703999 112.499 0.703999C113.117 0.703999 113.523 0.761999 113.717 0.877997C113.91 0.993998 114.007 1.20667 114.007 1.516C114.007 1.632 113.968 1.72866 113.891 1.806C113.852 1.88333 113.755 1.96066 113.601 2.038C113.446 2.07667 113.311 2.11533 113.195 2.154C113.079 2.154 112.924 2.19266 112.731 2.27C112.537 2.30866 112.383 2.34733 112.267 2.386C111.223 2.69533 110.469 3.52667 110.005 4.88C109.541 6.23333 109.154 8.20533 108.845 10.796C107.221 24.4453 105.713 34.4407 104.321 40.782C104.282 41.0913 104.147 41.4393 103.915 41.826C103.683 42.174 103.412 42.348 103.103 42.348C102.832 42.348 102.542 42.174 102.233 41.826C101.923 41.478 101.479 40.84 100.899 39.912C100.319 38.984 99.6612 37.94 98.9266 36.78C98.2306 35.5813 97.1866 33.9187 95.7946 31.792C94.4412 29.6267 92.9719 27.4227 91.3866 25.18C90.1492 23.4013 88.9506 21.7 87.7906 20.076C86.6692 18.452 85.7992 17.234 85.1806 16.422C84.6006 15.5713 84.0592 14.798 83.5566 14.102C83.0539 13.406 82.6866 12.884 82.4546 12.536C82.2226 12.1493 82.0486 11.84 81.9326 11.608C81.7006 11.144 81.3912 10.912 81.0046 10.912C80.4632 10.912 80.0959 11.8207 79.9026 13.638C79.4772 17.93 78.8586 22.57 78.0466 27.558C77.2346 32.5073 76.8286 35.794 76.8286 37.418C76.8286 38.926 77.5826 39.912 79.0906 40.376C79.2452 40.4147 79.4579 40.4727 79.7286 40.55C80.0379 40.6273 80.2699 40.6853 80.4246 40.724C80.5792 40.7627 80.7532 40.8207 80.9466 40.898C81.1399 40.9753 81.2752 41.072 81.3526 41.188C81.4299 41.304 81.4686 41.4393 81.4686 41.594C81.4686 42.058 81.1399 42.29 80.4826 42.29C80.2892 42.29 79.7866 42.2513 78.9746 42.174C78.1626 42.1353 76.7319 42.116 74.6826 42.116C73.9092 42.116 73.1166 42.1353 72.3046 42.174C71.5312 42.2513 71.0672 42.29 70.9126 42.29C70.0619 42.29 69.6366 42.0773 69.6366 41.652ZM115.191 38.23C115.191 37.882 115.403 37.6307 115.829 37.476L133.809 30.98C135.433 30.4 136.245 30.052 136.245 29.936C136.245 29.704 135.433 29.298 133.809 28.718L116.061 22.28C115.481 22.1253 115.191 21.816 115.191 21.352C115.191 20.3853 115.539 19.902 116.235 19.902C116.351 19.902 117.337 20.25 119.193 20.946C125.031 23.1113 132.011 25.6633 140.131 28.602C140.749 28.834 141.059 29.2207 141.059 29.762C141.059 30.1873 141.001 30.4773 140.885 30.632C140.807 30.7867 140.575 30.9413 140.189 31.096C124.529 36.78 116.641 39.622 116.525 39.622C116.061 39.622 115.713 39.4673 115.481 39.158C115.287 38.8487 115.191 38.5393 115.191 38.23Z" fill="#E15544"/>
</g>
<defs>
<filter id="filter0_d_525_2" x="0.797852" y="0.703979" width="144.261" height="49.76" filterUnits="userSpaceOnUse" color-interpolation-filters="sRGB">
<feFlood flood-opacity="0" result="BackgroundImageFix"/>
<feColorMatrix in="SourceAlpha" type="matrix" values="0 0 0 0 0 0 0 0 0 0 0 0 0 0 0 0 0 0 127 0" result="hardAlpha"/>
<feOffset dy="4"/>
<feGaussianBlur stdDeviation="2"/>
<feComposite in2="hardAlpha" operator="out"/>
<feColorMatrix type="matrix" values="0 0 0 0 0 0 0 0 0 0 0 0 0 0 0 0 0 0 0.25 0"/>
<feBlend mode="normal" in2="BackgroundImageFix" result="effect1_dropShadow_525_2"/>
<feBlend mode="normal" in="SourceGraphic" in2="effect1_dropShadow_525_2" result="shape"/>
</filter>
</defs>
</svg>